<svg xmlns="http://www.w3.org/2000/svg" xmlns:xlink="http://www.w3.org/1999/xlink" viewBox="0 0 70 70"><defs><style>.cls-1{fill:#fff;}.cls-2{fill:url(#linear-gradient);}.cls-3{fill:url(#linear-gradient-2);}.cls-4{fill:none;stroke:#000;stroke-linecap:round;stroke-linejoin:round;stroke-width:0.57px;}</style><linearGradient id="linear-gradient" x1="29.29" y1="25.73" x2="58.51" y2="25.73" gradientUnits="userSpaceOnUse"><stop offset="0" stop-color="#5eea03"/><stop offset="0" stop-color="#4fea08"/><stop offset="0" stop-color="#37ea10"/><stop offset="0" stop-color="#2eea13"/></linearGradient><linearGradient id="linear-gradient-2" x1="33.1" y1="42.82" x2="47.85" y2="42.82" xlink:href="#linear-gradient"/></defs><title>dcrops logo</title><g id="Layer_11" data-name="Layer 11"><path d="M11.76,51.89a3.73,3.73,0,0,1-2-.5l-.15-.1a5.35,5.35,0,0,1-2.52.57,6.61,6.61,0,0,1-4.92-2.31,7.67,7.67,0,0,1,0-10.66,6.64,6.64,0,0,1,4.91-2.32,5.17,5.17,0,0,1,1.44.19V34a8.43,8.43,0,0,1,.05-1A3.14,3.14,0,0,1,8.91,32a2.34,2.34,0,0,1,1.42-1.16,5.72,5.72,0,0,1,1.62-.2,5.72,5.72,0,0,1,1.62.2A2.3,2.3,0,0,1,15,32a3.29,3.29,0,0,1,.35,1.06,8.5,8.5,0,0,1,.05,1v2a1.39,1.39,0,0,1-.24.76,7,7,0,0,0-.74,1.39,7.7,7.7,0,0,0-.53,2.91,8,8,0,0,0,.54,3,8.8,8.8,0,0,0,.74,1.44,1.3,1.3,0,0,1,.23.74v2.16a8.5,8.5,0,0,1-.05,1A3,3,0,0,1,15,50.56C14.21,51.89,12.36,51.89,11.76,51.89ZM7.67,43.45a.61.61,0,0,0-.54.21.79.79,0,0,0-.25.58.71.71,0,0,0,.25.53.72.72,0,0,0,.56.24.61.61,0,0,0,.5-.21.77.77,0,0,0,.25-.55.91.91,0,0,0-.26-.6A.56.56,0,0,0,7.67,43.45Z"/><path d="M21.77,51.62a10.45,10.45,0,0,1-2.64-.34,11.14,11.14,0,0,1-2.74-1.15,11,11,0,0,1-2.53-2A9.25,9.25,0,0,1,12,45.11a10.63,10.63,0,0,1-.74-4A10.27,10.27,0,0,1,12,37.22a9.1,9.1,0,0,1,1.88-3,10.44,10.44,0,0,1,2.55-1.91,11.1,11.1,0,0,1,5.38-1.47,9.33,9.33,0,0,1,2.68.41,9,9,0,0,1,2.07.84l.57.33,0,0,.74.47.07.06A2.74,2.74,0,0,1,29,35.19a3.63,3.63,0,0,1-.75,2.12c-.9,1.24-1.81,1.85-2.77,1.85a3.59,3.59,0,0,1-2-.76l-.1-.07a2.91,2.91,0,0,0-1.87-.52,3.92,3.92,0,0,0-2.3.83,2.78,2.78,0,0,0-.8,1,3.89,3.89,0,0,0,0,3.18,3,3,0,0,0,.82,1,3.86,3.86,0,0,0,2.28.8,3.49,3.49,0,0,0,1-.14,3,3,0,0,0,.58-.21l.4-.29.11-.06a3.7,3.7,0,0,1,1.83-.67c1.47,0,2.42,1.48,2.73,2h0A3.93,3.93,0,0,1,29,47.33a2.46,2.46,0,0,1-.7,1.76,5.17,5.17,0,0,1-1,.82l-.84.51a9,9,0,0,1-1.92.76A9.41,9.41,0,0,1,21.77,51.62Z"/><path d="M26.92,52.9a4.15,4.15,0,0,1-2.69-.76l0,0a2.87,2.87,0,0,1-.93-2.06v-.28a1.32,1.32,0,0,1,.9-1.26,6.73,6.73,0,0,0,.93-.36l.82-.51a2.2,2.2,0,0,0,.44-.33,2.46,2.46,0,0,0-.31-.62,3.61,3.61,0,0,0-.53-.67l-.28.14a1.33,1.33,0,0,1-.64.17,1.37,1.37,0,0,1-.68-.19A1.33,1.33,0,0,1,23.26,45V39.77a8,8,0,0,1,0-1.1,3.42,3.42,0,0,1,.36-1.11h0a2.27,2.27,0,0,1,.84-.9,1.36,1.36,0,0,1,.71-.2l.26,0,.05,0a1.39,1.39,0,0,1,.73-.3l.69,0a4.29,4.29,0,0,1,2.69.74l.45-.26a4.32,4.32,0,0,1,2.1-.62,9.1,9.1,0,0,1,1.26.08,8.19,8.19,0,0,1,1.14.28,3.15,3.15,0,0,1,1.45,1,3.1,3.1,0,0,1,.65,2.11A5.43,5.43,0,0,1,36,41.86a2.91,2.91,0,0,1-2.66,1.76,3.4,3.4,0,0,1-1.5-.35,1.58,1.58,0,0,0-.59-.08.78.78,0,0,0-.52.21c-.14.11-.14.16-.14.2v5.63a7.92,7.92,0,0,1-.05,1.1,3.42,3.42,0,0,1-.4,1.16l0,0a2.53,2.53,0,0,1-1.45,1.12A5.48,5.48,0,0,1,26.92,52.9Z"/><path d="M49.25,56.74a5,5,0,0,1-1.62-.22,2.32,2.32,0,0,1-1.39-1.12,2.92,2.92,0,0,1-.36-1,6.7,6.7,0,0,1-.05-1V46a1.29,1.29,0,0,1,.13-.58,5.75,5.75,0,0,0,.56-2.58A6.15,6.15,0,0,0,46,40.18a1.25,1.25,0,0,1-.13-.57v-.45a6.78,6.78,0,0,1,.05-1,3.18,3.18,0,0,1,.33-1h0A2.84,2.84,0,0,1,49,35.74a4.13,4.13,0,0,1,2.52.59l.05,0a5.33,5.33,0,0,1,2.59-.59,6.45,6.45,0,0,1,4.71,2.28,7.79,7.79,0,0,1,.6.71,1.33,1.33,0,0,1,.28.82v0a3.59,3.59,0,0,0,.32,1.63,2.46,2.46,0,0,0,.49.7,1.32,1.32,0,0,1,.44.91c0,.15,0,.31,0,.45a7.64,7.64,0,0,1-.12,1.36,1.32,1.32,0,0,1-1,1.06,4.17,4.17,0,0,0-.58,1,1.35,1.35,0,0,1-.16,1.51l-.27.3a6.43,6.43,0,0,1-4.72,2.29,6.84,6.84,0,0,1-1.56-.17v2.63a8.19,8.19,0,0,1,0,1,3.12,3.12,0,0,1-.36,1,2.32,2.32,0,0,1-1.37,1.15A5,5,0,0,1,49.25,56.74Zm4.21-14.16a.52.52,0,0,0-.48.19.81.81,0,0,0-.25.57.79.79,0,0,0,.24.54.54.54,0,0,0,.46.19.81.81,0,0,0,.8-.73.78.78,0,0,0-.24-.56A.63.63,0,0,0,53.46,42.58Z"/><path d="M40.48,51.49a8.6,8.6,0,0,1-4-1,8.92,8.92,0,0,1-3.29-3,8.07,8.07,0,0,1-1.37-4.59q0-.34,0-.69a1.27,1.27,0,0,1,.48-.93,1.3,1.3,0,0,1,.84-.31h.26c.07,0,.15,0,.29-.28A3.12,3.12,0,0,0,34,39.39,1.76,1.76,0,0,0,34,39h0a1.34,1.34,0,0,1-.07-1.86c.17-.19.35-.36.53-.53a8.78,8.78,0,0,1,4.44-2.3.88.88,0,0,1,0-.17c0-.77.07-1.76.12-2.87a6.89,6.89,0,0,1-2,.31,7.13,7.13,0,0,1-4.93-2.1L28.3,25.91a1.34,1.34,0,0,1,.35-2.18,15.16,15.16,0,0,1,5.62-1.26,8.5,8.5,0,0,1,2.43.33,8,8,0,0,1,2.87,1.58,25.45,25.45,0,0,1,1-5.12c1.32-3.7,5-6,9.49-6a13.88,13.88,0,0,1,2.56.25,27.55,27.55,0,0,0,5,.6c.34,0,.52,0,.58,0a1,1,0,0,1,.3,0,1.31,1.31,0,0,1,1,.5A1.36,1.36,0,0,1,59.62,16a27.71,27.71,0,0,1-2.32,3.66c-2,2.64-4,4.31-6,5A17.13,17.13,0,0,1,46,25.5a12.61,12.61,0,0,1-2.35-.21c-.2,2.25-.56,6.52-.67,9.21a8.9,8.9,0,0,1,3.53,2.08,8.71,8.71,0,0,1,1.27,11,8.6,8.6,0,0,1-3.31,3A9,9,0,0,1,40.48,51.49Zm0-10a1.53,1.53,0,0,0-1,.37,1.1,1.1,0,0,0-.33.94c0,.65.23.83.33.9a1.59,1.59,0,0,0,.94.39,1.71,1.71,0,0,0,1-.4,1,1,0,0,0,.36-.93c0-.66-.23-.84-.32-.91A1.55,1.55,0,0,0,40.48,41.52Z"/><path d="M63,50.37a9.68,9.68,0,0,1-5.22-1.56,2.35,2.35,0,0,1-1.08-2.05,4.85,4.85,0,0,1,1.16-2.67,2.29,2.29,0,0,1,.57-.59,5.18,5.18,0,0,1-.69-1.07,6.25,6.25,0,0,1-.6-2.81c0-1.93.86-5.17,6.6-5.17a9.86,9.86,0,0,1,4.09.95h0a2.38,2.38,0,0,1,1.62,2.18,4,4,0,0,1-.74,2.14,3.78,3.78,0,0,1-.7.85,4.16,4.16,0,0,1,1.35,1.49A5.55,5.55,0,0,1,70,44.82a5.78,5.78,0,0,1-.63,2.77,4.34,4.34,0,0,1-1.89,1.88l0,0A10.35,10.35,0,0,1,63,50.37Z"/><path d="M42.06,38.68c-1.13.54-6.56,5.55-6.56,5.55l4.33,2.11h3.76Z"/><polygon points="50.79 40.1 49.96 46.16 56.25 45.4 56.25 40.1 50.79 40.1"/><polygon points="3.72 40.86 4.3 46.92 10.15 47.31 11.22 40.67 3.72 40.86"/><path class="cls-1" d="M13.19,44.62a9.26,9.26,0,0,1-.64-3.49,8.89,8.89,0,0,1,.63-3.41,8.6,8.6,0,0,1,.88-1.65v-2a5.72,5.72,0,0,0,0-.83,1.9,1.9,0,0,0-.21-.64,1.07,1.07,0,0,0-.64-.51A4.08,4.08,0,0,0,12,32a4.08,4.08,0,0,0-1.22.14,1,1,0,0,0-.64.5,1.82,1.82,0,0,0-.21.62,5.81,5.81,0,0,0,0,.83v5.07A3.37,3.37,0,0,0,7.07,37.9a5.38,5.38,0,0,0-3.95,1.91,6.35,6.35,0,0,0,0,8.83,5.37,5.37,0,0,0,4,1.9,3.57,3.57,0,0,0,2.82-1.16c.13.79.75,1.18,1.87,1.18s1.79-.22,2-.65a1.64,1.64,0,0,0,.23-.62,5.72,5.72,0,0,0,0-.83V46.3A9.47,9.47,0,0,1,13.19,44.62Zm-4,1.07a2,2,0,0,1-1.49.65,2.17,2.17,0,0,1-2.14-2.1,2.17,2.17,0,0,1,.58-1.46,1.94,1.94,0,0,1,1.54-.66,1.9,1.9,0,0,1,1.53.68,2.2,2.2,0,0,1,.57,1.45A2.1,2.1,0,0,1,9.18,45.69Z"/><path class="cls-2" d="M52.46,14.8c-4.59-.87-9.11.87-10.55,4.9a37.5,37.5,0,0,0-1.26,8.15,7,7,0,0,0-4.26-3.79c-3.17-1-7.1.87-7.1.87l3.79,3.55a5.66,5.66,0,0,0,7.49.57c-.14,2.1-.22,4-.26,5.3h0A2.29,2.29,0,0,1,40,35.58l.25.1v.88c0,.38,1.54.32,1.54.32a2.15,2.15,0,0,1-.08-.61l.33.14a8,8,0,0,1-.32-1.66c.11-3.15.61-8.8.78-10.61a.44.44,0,0,1,.57-.38,13.15,13.15,0,0,0,7.84-.42c4.26-1.38,7.58-8,7.58-8S57.06,15.68,52.46,14.8Z"/><path class="cls-1" d="M34.19,37.6a1.78,1.78,0,0,1,.84.54,1.92,1.92,0,0,1,.34,1.25,4.26,4.26,0,0,1-.51,1.88,1.6,1.6,0,0,1-1.48,1,2,2,0,0,1-.92-.22,2.78,2.78,0,0,0-1.17-.21,2.11,2.11,0,0,0-1.35.51,1.53,1.53,0,0,0-.63,1.23v5.63a6.82,6.82,0,0,1,0,.93,2.09,2.09,0,0,1-.25.71c-.27.47-1,.7-2.09.7a2.9,2.9,0,0,1-1.85-.46A1.56,1.56,0,0,1,24.59,50V39.77a7.31,7.31,0,0,1,0-.93,2.14,2.14,0,0,1,.22-.68c.25-.48.95-.73,2.1-.73s1.74.21,2,.62a1.6,1.6,0,0,1,.29.89,4.18,4.18,0,0,1,.39-.46,4.73,4.73,0,0,1,1.09-.72,3.06,3.06,0,0,1,1.46-.46,6.39,6.39,0,0,1,1.06.07A5.8,5.8,0,0,1,34.19,37.6Z"/><path class="cls-1" d="M24,45.42l.44-.31a2.83,2.83,0,0,1,1.16-.48c.49,0,1,.45,1.61,1.35a2.82,2.82,0,0,1,.53,1.35,1.17,1.17,0,0,1-.32.84,3.84,3.84,0,0,1-.76.61l-.83.5a9.18,9.18,0,0,1-1.63.63,7.82,7.82,0,0,1-2.38.38,9.27,9.27,0,0,1-2.31-.3,9.77,9.77,0,0,1-2.41-1,9.64,9.64,0,0,1-2.23-1.74,7.8,7.8,0,0,1-1.63-2.62,9.26,9.26,0,0,1-.64-3.49,8.89,8.89,0,0,1,.63-3.41,7.89,7.89,0,0,1,1.6-2.53A9,9,0,0,1,17,33.51a9.86,9.86,0,0,1,4.75-1.3,8.08,8.08,0,0,1,2.3.35,8.24,8.24,0,0,1,1.78.71l.57.34.68.43a1.46,1.46,0,0,1,.63,1.15,2.3,2.3,0,0,1-.51,1.34c-.63.87-1.19,1.3-1.69,1.3a2.58,2.58,0,0,1-1.23-.53,4.12,4.12,0,0,0-2.7-.82,5.27,5.27,0,0,0-3.08,1.08,4.07,4.07,0,0,0-1.21,1.5,5.19,5.19,0,0,0,0,4.36,4.09,4.09,0,0,0,1.23,1.52A5.14,5.14,0,0,0,21.59,46,5,5,0,0,0,23,45.81,3.62,3.62,0,0,0,24,45.42Z"/><path class="cls-1" d="M57.94,39a5.15,5.15,0,0,0-3.75-1.87,3.35,3.35,0,0,0-2.9,1.26,1.33,1.33,0,0,0-.53-1A3.16,3.16,0,0,0,49,37.07c-.86,0-1.4.22-1.63.66a2.28,2.28,0,0,0-.21.6c0,.18,0,.46,0,.83v.45a7.39,7.39,0,0,1,.69,3.23A7.14,7.14,0,0,1,47.16,46v7.34a8.18,8.18,0,0,0,0,.83,2.07,2.07,0,0,0,.22.61,1.06,1.06,0,0,0,.63.48,3.93,3.93,0,0,0,1.21.15,3.83,3.83,0,0,0,1.19-.15,1,1,0,0,0,.61-.5,1.66,1.66,0,0,0,.22-.62,5.48,5.48,0,0,0,0-.82V48.41a3.48,3.48,0,0,0,2.89,1.12A5.12,5.12,0,0,0,58,47.66a6.23,6.23,0,0,0,0-8.69Zm-3,5.8a2,2,0,0,1-1.51.63A1.84,1.84,0,0,1,52,44.76a2.09,2.09,0,0,1-.57-1.42A2.15,2.15,0,0,1,52,41.9a1.87,1.87,0,0,1,1.49-.65,2,2,0,0,1,1.52.64,2.09,2.09,0,0,1,.58,1.45A2,2,0,0,1,54.94,44.77Z"/><path class="cls-1" d="M58.47,47.68a1,1,0,0,1-.46-.92,4,4,0,0,1,.92-1.92,1,1,0,0,1,.87-.41,3.62,3.62,0,0,1,1.61.59,3.74,3.74,0,0,0,1.85.6c1,0,1.48-.2,1.48-.58s-.55-.54-1.63-.68a8,8,0,0,1-3-1.15,3.19,3.19,0,0,1-1.16-1.37,4.91,4.91,0,0,1-.46-2.22c0-2.56,1.75-3.84,5.27-3.84a8.53,8.53,0,0,1,3.54.83c.57.26.85.58.85,1A2.88,2.88,0,0,1,67.58,39c-.36.57-.72.85-1.09.85a3.23,3.23,0,0,1-1.08-.36,4.12,4.12,0,0,0-1.72-.37c-.95,0-1.43.18-1.43.54s.55.8,1.65.95a9,9,0,0,1,3.11.92,2.79,2.79,0,0,1,1.18,1.18,4.29,4.29,0,0,1,.47,2.1A4.58,4.58,0,0,1,68.2,47a3.08,3.08,0,0,1-1.33,1.32A8.9,8.9,0,0,1,63,49,8.31,8.31,0,0,1,58.47,47.68Z"/><path class="cls-3" d="M45.63,37.55a7.3,7.3,0,0,0-5.13-2.08,7.39,7.39,0,0,0-5.15,2.09L34.9,38l.13.13a1.92,1.92,0,0,1,.34,1.25,4.26,4.26,0,0,1-.51,1.88,1.6,1.6,0,0,1-1.48,1l-.26,0c0,.2,0,.4,0,.6a6.78,6.78,0,0,0,1.14,3.85A7.53,7.53,0,0,0,37,49.29a7.24,7.24,0,0,0,3.44.88,7.68,7.68,0,0,0,3.42-.82,7.37,7.37,0,0,0,2.8-2.55,7.4,7.4,0,0,0-1.07-9.25Zm-3.41,7.23a3,3,0,0,1-1.77.67,2.83,2.83,0,0,1-1.74-.66,2.3,2.3,0,0,1-.86-2,2.36,2.36,0,0,1,.83-2,2.78,2.78,0,0,1,1.8-.67,2.85,2.85,0,0,1,1.79.64,2.31,2.31,0,0,1,.83,2A2.34,2.34,0,0,1,42.22,44.78Z"/><path class="cls-4" d="M13.19,44.62a9.26,9.26,0,0,1-.64-3.49,8.89,8.89,0,0,1,.63-3.41,8.6,8.6,0,0,1,.88-1.65v-2a5.72,5.72,0,0,0,0-.83,1.9,1.9,0,0,0-.21-.64,1.07,1.07,0,0,0-.64-.51A4.08,4.08,0,0,0,12,32a4.08,4.08,0,0,0-1.22.14,1,1,0,0,0-.64.5,1.82,1.82,0,0,0-.21.62,5.81,5.81,0,0,0,0,.83v5.07A3.37,3.37,0,0,0,7.07,37.9a5.38,5.38,0,0,0-3.95,1.91,6.35,6.35,0,0,0,0,8.83,5.37,5.37,0,0,0,4,1.9,3.57,3.57,0,0,0,2.82-1.16c.13.79.75,1.18,1.87,1.18s1.79-.22,2-.65a1.64,1.64,0,0,0,.23-.62,5.72,5.72,0,0,0,0-.83V46.3A9.47,9.47,0,0,1,13.19,44.62Zm-4,1.07a2,2,0,0,1-1.49.65,2.17,2.17,0,0,1-2.14-2.1,2.17,2.17,0,0,1,.58-1.46,1.94,1.94,0,0,1,1.54-.66,1.9,1.9,0,0,1,1.53.68,2.2,2.2,0,0,1,.57,1.45A2.1,2.1,0,0,1,9.18,45.69Z"/><path class="cls-4" d="M24,45.42l.44-.31a2.83,2.83,0,0,1,1.16-.48c.49,0,1,.45,1.61,1.35a2.82,2.82,0,0,1,.53,1.35,1.17,1.17,0,0,1-.32.84,3.84,3.84,0,0,1-.76.61l-.83.5a9.18,9.18,0,0,1-1.63.63,7.82,7.82,0,0,1-2.38.38,9.27,9.27,0,0,1-2.31-.3,9.77,9.77,0,0,1-2.41-1,9.64,9.64,0,0,1-2.23-1.74,7.8,7.8,0,0,1-1.63-2.62,9.26,9.26,0,0,1-.64-3.49,8.89,8.89,0,0,1,.63-3.41,7.89,7.89,0,0,1,1.6-2.53A9,9,0,0,1,17,33.51a9.86,9.86,0,0,1,4.75-1.3,8.08,8.08,0,0,1,2.3.35,8.24,8.24,0,0,1,1.78.71l.57.34.68.43a1.46,1.46,0,0,1,.63,1.15,2.3,2.3,0,0,1-.51,1.34c-.63.87-1.19,1.3-1.69,1.3a2.58,2.58,0,0,1-1.23-.53,4.12,4.12,0,0,0-2.7-.82,5.27,5.27,0,0,0-3.08,1.08,4.07,4.07,0,0,0-1.21,1.5,5.19,5.19,0,0,0,0,4.36,4.09,4.09,0,0,0,1.23,1.52A5.14,5.14,0,0,0,21.59,46,5,5,0,0,0,23,45.81,3.62,3.62,0,0,0,24,45.42Z"/><path class="cls-4" d="M35,38.14a1.78,1.78,0,0,0-.84-.54,5.8,5.8,0,0,0-.94-.23,6.39,6.39,0,0,0-1.06-.07,3.06,3.06,0,0,0-1.46.46,4.73,4.73,0,0,0-1.09.72,4.18,4.18,0,0,0-.39.46,1.6,1.6,0,0,0-.29-.89c-.27-.41-.94-.62-2-.62a4.91,4.91,0,0,0-.57,0,1.39,1.39,0,0,1-.86.37,1.17,1.17,0,0,1-.3,0,1,1,0,0,0-.37.38,2.14,2.14,0,0,0-.22.68,7.31,7.31,0,0,0,0,.93V45a2.31,2.31,0,0,1,1-.37c.49,0,1,.45,1.61,1.35a2.82,2.82,0,0,1,.53,1.35,1.17,1.17,0,0,1-.32.84,3.84,3.84,0,0,1-.76.61l-.83.5a7.73,7.73,0,0,1-1.19.49V50a1.56,1.56,0,0,0,.48,1.15,2.9,2.9,0,0,0,1.85.46c1.12,0,1.82-.23,2.09-.7a2.09,2.09,0,0,0,.25-.71,6.82,6.82,0,0,0,0-.93V43.6a1.53,1.53,0,0,1,.63-1.23,2.11,2.11,0,0,1,1.35-.51,2.78,2.78,0,0,1,1.17.21,2,2,0,0,0,.92.22,1.6,1.6,0,0,0,1.48-1,4.26,4.26,0,0,0,.51-1.88A1.92,1.92,0,0,0,35,38.14Z"/><path class="cls-4" d="M58,46.76a4,4,0,0,1,.92-1.92.91.91,0,0,1,.69-.4,7,7,0,0,0,.09-1.13c0-.13,0-.25,0-.38a3.57,3.57,0,0,1-.79-1.09,4.91,4.91,0,0,1-.46-2.22v-.06c-.16-.2-.33-.4-.51-.59a5.15,5.15,0,0,0-3.75-1.87,3.35,3.35,0,0,0-2.9,1.26,1.33,1.33,0,0,0-.53-1A3.16,3.16,0,0,0,49,37.07c-.86,0-1.4.22-1.63.66a2.28,2.28,0,0,0-.21.6c0,.18,0,.46,0,.83v.45a7.39,7.39,0,0,1,.69,3.23A7.14,7.14,0,0,1,47.16,46v7.34a8.18,8.18,0,0,0,0,.83,2.07,2.07,0,0,0,.22.61,1.06,1.06,0,0,0,.63.48,3.93,3.93,0,0,0,1.21.15,3.83,3.83,0,0,0,1.19-.15,1,1,0,0,0,.61-.5,1.66,1.66,0,0,0,.22-.62,5.48,5.48,0,0,0,0-.82V48.41a3.48,3.48,0,0,0,2.89,1.12A5.12,5.12,0,0,0,58,47.66a2.85,2.85,0,0,0,.23-.26A1.15,1.15,0,0,1,58,46.76Zm-3.07-2a2,2,0,0,1-1.51.63A1.84,1.84,0,0,1,52,44.76a2.09,2.09,0,0,1-.57-1.42A2.15,2.15,0,0,1,52,41.9a1.87,1.87,0,0,1,1.49-.65,2,2,0,0,1,1.52.64,2.09,2.09,0,0,1,.58,1.45A2,2,0,0,1,54.94,44.77Z"/><path class="cls-4" d="M52.39,14.81c-4.6-.87-9.12.87-10.56,4.9a38.12,38.12,0,0,0-1.26,8.15,6.93,6.93,0,0,0-4.26-3.79c-3.17-.95-7.1.87-7.1.87L33,28.49a5.66,5.66,0,0,0,7.49.57c-.14,2.1-.22,4-.26,5.3h0A2.23,2.23,0,0,1,40,35.49a7.38,7.38,0,0,0-4.65,2.07L34.9,38l.13.13a1.92,1.92,0,0,1,.34,1.25,4.26,4.26,0,0,1-.51,1.88,1.6,1.6,0,0,1-1.48,1l-.26,0c0,.2,0,.4,0,.6a6.78,6.78,0,0,0,1.14,3.85A7.53,7.53,0,0,0,37,49.29a7.24,7.24,0,0,0,3.44.88,7.68,7.68,0,0,0,3.42-.82,7.37,7.37,0,0,0,2.8-2.55,7.4,7.4,0,0,0-1.07-9.25,7.35,7.35,0,0,0-3.86-2,7.17,7.17,0,0,1-.11-.81c.11-3.15.62-8.81.78-10.62a.45.45,0,0,1,.58-.38,13.17,13.17,0,0,0,7.83-.41c4.26-1.39,7.58-8,7.58-8S57,15.69,52.39,14.81Zm-10.12,26a2.31,2.31,0,0,1,.83,2,2.34,2.34,0,0,1-.88,2,3,3,0,0,1-1.77.67,2.83,2.83,0,0,1-1.74-.66,2.3,2.3,0,0,1-.86-2,2.36,2.36,0,0,1,.83-2,2.78,2.78,0,0,1,1.8-.67A2.85,2.85,0,0,1,42.27,40.83Z"/><path class="cls-4" d="M58.47,47.68a1,1,0,0,1-.46-.92,4,4,0,0,1,.92-1.92,1,1,0,0,1,.87-.41,3.62,3.62,0,0,1,1.61.59,3.74,3.74,0,0,0,1.85.6c1,0,1.48-.2,1.48-.58s-.55-.54-1.63-.68a8,8,0,0,1-3-1.15,3.19,3.19,0,0,1-1.16-1.37,4.91,4.91,0,0,1-.46-2.22c0-2.56,1.75-3.84,5.27-3.84a8.53,8.53,0,0,1,3.54.83c.57.26.85.58.85,1A2.88,2.88,0,0,1,67.58,39c-.36.57-.72.85-1.09.85a3.23,3.23,0,0,1-1.08-.36,4.12,4.12,0,0,0-1.72-.37c-.95,0-1.43.18-1.43.54s.55.8,1.65.95a9,9,0,0,1,3.11.92,2.79,2.79,0,0,1,1.18,1.18,4.29,4.29,0,0,1,.47,2.1A4.58,4.58,0,0,1,68.2,47a3.08,3.08,0,0,1-1.33,1.32A8.9,8.9,0,0,1,63,49,8.31,8.31,0,0,1,58.47,47.68Z"/></g></svg>